<svg width="32" height="32" viewBox="0 0 32 32" fill="none" xmlns="http://www.w3.org/2000/svg">
<g id="wifi 1">
<g id="Group">
<path id="Vector" d="M26.08 13.4718C25.728 13.4718 25.392 13.3438 25.12 13.0718C22.688 10.6398 19.472 9.3118 16.032 9.3118C12.608 9.3118 9.37599 10.6558 6.94399 13.0718C6.41599 13.5998 5.55199 13.5998 5.02399 13.0718C4.49599 12.5438 4.49599 11.6798 5.02399 11.1518C7.96799 8.2078 11.872 6.5918 16.016 6.5918C20.176 6.5918 24.08 8.2078 27.008 11.1518C27.536 11.6798 27.536 12.5438 27.008 13.0718C26.768 13.3438 26.416 13.4718 26.08 13.4718Z" stroke="#449AC5" stroke-miterlimit="10" stroke-linejoin="round"/>
<path id="Vector_2" d="M23.232 17.6158C22.88 17.6158 22.544 17.4878 22.272 17.2158C18.832 13.7758 13.232 13.7758 9.79201 17.2158C9.26401 17.7438 8.40001 17.7438 7.87201 17.2158C7.34401 16.6878 7.34401 15.8238 7.87201 15.2958C12.368 10.7998 19.696 10.7998 24.192 15.2958C24.72 15.8238 24.72 16.6878 24.192 17.2158C23.936 17.4718 23.584 17.6158 23.232 17.6158Z" stroke="#449AC5" stroke-miterlimit="10" stroke-linejoin="round"/>
<path id="Vector_3" d="M11.856 21.7116C11.504 21.7116 11.168 21.5836 10.896 21.3116C10.368 20.7836 10.368 19.9196 10.896 19.3916C13.728 16.5596 18.352 16.5596 21.184 19.3916C21.712 19.9196 21.712 20.7836 21.184 21.3116C20.656 21.8396 19.792 21.8396 19.264 21.3116C17.488 19.5356 14.592 19.5356 12.816 21.3116C12.544 21.5836 12.192 21.7116 11.856 21.7116Z" stroke="#449AC5" stroke-miterlimit="10" stroke-linejoin="round"/>
<path id="Vector_4" d="M16.032 26.2398C17.1542 26.2398 18.064 25.33 18.064 24.2078C18.064 23.0855 17.1542 22.1758 16.032 22.1758C14.9098 22.1758 14 23.0855 14 24.2078C14 25.33 14.9098 26.2398 16.032 26.2398Z" stroke="#449AC5" stroke-miterlimit="10" stroke-linejoin="round"/>
</g>
</g>
</svg>
