<svg width="32" height="32" viewBox="0 0 32 32" fill="none" xmlns="http://www.w3.org/2000/svg">
<g id="&#209;&#129;&#209;&#130;&#208;&#184;&#209;&#128;&#208;&#176;&#208;&#187;&#208;&#186;&#208;&#176; 1">
<g id="Group">
<path id="Vector" d="M25.984 29.7762H6.016C5.664 29.7762 5.376 29.4882 5.376 29.1362V3.36021C5.376 3.00821 5.664 2.72021 6.016 2.72021H25.984C26.336 2.72021 26.624 3.00821 26.624 3.36021V29.1202C26.624 29.4722 26.336 29.7762 25.984 29.7762Z" stroke="#449AC5" stroke-miterlimit="10" stroke-linejoin="round"/>
<path id="Vector_2" d="M5.376 7.93604H26.624" stroke="#449AC5" stroke-miterlimit="10" stroke-linejoin="round"/>
<g id="Group_2">
<path id="Vector_3" d="M16 22.9443C19.3137 22.9443 22 20.258 22 16.9443C22 13.6306 19.3137 10.9443 16 10.9443C12.6863 10.9443 9.99999 13.6306 9.99999 16.9443C9.99999 20.258 12.6863 22.9443 16 22.9443Z" stroke="#449AC5" stroke-miterlimit="10" stroke-linejoin="round"/>
<path id="Vector_4" d="M19.104 16.9443C19.104 16.4803 19.488 16.0963 19.984 16.0643C19.584 14.2403 17.952 12.8643 16 12.8643C13.744 12.8643 11.92 14.6883 11.92 16.9443C11.92 19.2003 13.744 21.0243 16 21.0243C17.952 21.0243 19.584 19.6483 19.984 17.8243C19.488 17.7923 19.104 17.4243 19.104 16.9443Z" stroke="#449AC5" stroke-miterlimit="10" stroke-linejoin="round"/>
</g>
<path id="Vector_5" d="M18.736 4.33643H14.08V6.28843H18.736V4.33643Z" stroke="#449AC5" stroke-miterlimit="10" stroke-linejoin="round"/>
<path id="Vector_6" d="M20.432 2.72021V7.93621" stroke="#449AC5" stroke-miterlimit="10" stroke-linejoin="round"/>
<path id="Vector_7" d="M7.936 6.25643C8.46619 6.25643 8.896 5.82662 8.896 5.29643C8.896 4.76623 8.46619 4.33643 7.936 4.33643C7.4058 4.33643 6.976 4.76623 6.976 5.29643C6.976 5.82662 7.4058 6.25643 7.936 6.25643Z" stroke="#449AC5" stroke-miterlimit="10" stroke-linejoin="round"/>
<path id="Vector_8" d="M11.456 6.25643C11.9862 6.25643 12.416 5.82662 12.416 5.29643C12.416 4.76623 11.9862 4.33643 11.456 4.33643C10.9258 4.33643 10.496 4.76623 10.496 5.29643C10.496 5.82662 10.9258 6.25643 11.456 6.25643Z" stroke="#449AC5" stroke-miterlimit="10" stroke-linejoin="round"/>
<path id="Vector_9" d="M5.376 25.9521H26.624" stroke="#449AC5" stroke-miterlimit="10" stroke-linejoin="round"/>
</g>
</g>
</svg>
