<svg width="32" height="32" viewBox="0 0 32 32" fill="none" xmlns="http://www.w3.org/2000/svg">
<g id="ps4 1">
<g id="Group">
<path id="Vector" d="M8.38403 15.9838H3.84003V10.3198H28.16V15.9838H23.616" stroke="#449AC5" stroke-miterlimit="10" stroke-linejoin="round"/>
<path id="Vector_2" d="M28.16 6.04785H3.84003V8.28785H28.16V6.04785Z" stroke="#449AC5" stroke-miterlimit="10" stroke-linejoin="round"/>
<path id="Vector_3" d="M5.31201 8.28809V10.3201" stroke="#449AC5" stroke-miterlimit="10" stroke-linejoin="round"/>
<path id="Vector_4" d="M26.688 8.28809V10.3201" stroke="#449AC5" stroke-miterlimit="10" stroke-linejoin="round"/>
<path id="Vector_5" d="M25.296 14.0479C25.8262 14.0479 26.256 13.6181 26.256 13.0879C26.256 12.5577 25.8262 12.1279 25.296 12.1279C24.7658 12.1279 24.336 12.5577 24.336 13.0879C24.336 13.6181 24.7658 14.0479 25.296 14.0479Z" stroke="#449AC5" stroke-miterlimit="10" stroke-linejoin="round"/>
</g>
<g id="Group_2">
<g id="Group_3">
<path id="Vector_6" d="M19.664 22.1757L20.88 24.9758C21.392 26.1918 22.736 26.7998 23.984 26.3837L24.032 26.3678C25.28 25.9518 26 24.6557 25.696 23.3917L24.176 17.1357C23.824 15.6637 22.448 14.7357 21.024 14.8317C20.672 14.8637 20.336 14.9597 20.016 15.1037L18.928 15.5997C18.016 16.0157 17.024 16.2237 16.016 16.2237H15.984C14.976 16.2237 13.984 16.0157 13.072 15.5997L11.984 15.1037C11.664 14.9597 11.328 14.8637 10.976 14.8317C9.53602 14.7197 8.17602 15.6637 7.82402 17.1357L6.30402 23.3917C6.00002 24.6717 6.72002 25.9678 7.96802 26.3678L8.01602 26.3837C9.26402 26.7998 10.608 26.1758 11.12 24.9758L12.336 22.2077" stroke="#449AC5" stroke-miterlimit="10" stroke-linejoin="round"/>
<g id="Group_4">
<g id="Group_5">
<path id="Vector_7" d="M21.3441 17.5036C21.6622 17.5036 21.9201 17.2457 21.9201 16.9276C21.9201 16.6094 21.6622 16.3516 21.3441 16.3516C21.0259 16.3516 20.7681 16.6094 20.7681 16.9276C20.7681 17.2457 21.0259 17.5036 21.3441 17.5036Z" fill="#449AC5"/>
<path id="Vector_8" d="M21.3441 19.7277C21.6622 19.7277 21.9201 19.4698 21.9201 19.1517C21.9201 18.8336 21.6622 18.5757 21.3441 18.5757C21.0259 18.5757 20.7681 18.8336 20.7681 19.1517C20.7681 19.4698 21.0259 19.7277 21.3441 19.7277Z" fill="#449AC5"/>
</g>
<g id="Group_6">
<path id="Vector_9" d="M20.16 18.6076C20.4782 18.6076 20.736 18.3497 20.736 18.0316C20.736 17.7135 20.4782 17.4556 20.16 17.4556C19.8419 17.4556 19.584 17.7135 19.584 18.0316C19.584 18.3497 19.8419 18.6076 20.16 18.6076Z" fill="#449AC5"/>
<path id="Vector_10" d="M22.528 18.6076C22.8461 18.6076 23.104 18.3497 23.104 18.0316C23.104 17.7135 22.8461 17.4556 22.528 17.4556C22.2099 17.4556 21.952 17.7135 21.952 18.0316C21.952 18.3497 22.2099 18.6076 22.528 18.6076Z" fill="#449AC5"/>
</g>
</g>
<g id="Group_7">
<path id="Vector_11" d="M10.624 17.0078V19.0718" stroke="#449AC5" stroke-miterlimit="10" stroke-linecap="round" stroke-linejoin="round"/>
<path id="Vector_12" d="M11.6641 18.0317H9.58405" stroke="#449AC5" stroke-miterlimit="10" stroke-linecap="round" stroke-linejoin="round"/>
</g>
<path id="Vector_13" d="M13.424 22.7037C14.2193 22.7037 14.864 22.059 14.864 21.2637C14.864 20.4684 14.2193 19.8237 13.424 19.8237C12.6287 19.8237 11.984 20.4684 11.984 21.2637C11.984 22.059 12.6287 22.7037 13.424 22.7037Z" stroke="#449AC5" stroke-miterlimit="10" stroke-linejoin="round"/>
<path id="Vector_14" d="M18.544 22.7037C19.3393 22.7037 19.984 22.059 19.984 21.2637C19.984 20.4684 19.3393 19.8237 18.544 19.8237C17.7487 19.8237 17.104 20.4684 17.104 21.2637C17.104 22.059 17.7487 22.7037 18.544 22.7037Z" stroke="#449AC5" stroke-miterlimit="10" stroke-linejoin="round"/>
<path id="Vector_15" d="M14.752 21.8398H17.28" stroke="#449AC5" stroke-miterlimit="10" stroke-linejoin="round"/>
</g>
<path id="Vector_16" d="M9.44 15.1359V13.8719C9.44 13.6799 9.6 13.5039 9.808 13.5039H11.6C11.792 13.5039 11.968 13.6639 11.968 13.8719V15.1039" stroke="#449AC5" stroke-miterlimit="10" stroke-linecap="round" stroke-linejoin="round"/>
<path id="Vector_17" d="M22.56 15.1359V13.8719C22.56 13.6799 22.4 13.5039 22.192 13.5039H20.4C20.208 13.5039 20.032 13.6639 20.032 13.8719V15.1039" stroke="#449AC5" stroke-miterlimit="10" stroke-linecap="round" stroke-linejoin="round"/>
</g>
</g>
</svg>
