<svg width="32" height="32" viewBox="0 0 32 32" fill="none" xmlns="http://www.w3.org/2000/svg">
<g id="&#208;&#159;&#208;&#190;&#209;&#129;&#209;&#131;&#208;&#180;&#208;&#190;&#208;&#188;&#208;&#190;&#208;&#185;&#208;&#186;&#208;&#176; 2 1">
<g id="Group">
<path id="Vector" d="M25.024 29.1518H6.976C6.512 29.1518 6.128 28.7678 6.128 28.3038V3.77584C6.128 3.19984 6.592 2.73584 7.168 2.73584H24.832C25.408 2.73584 25.872 3.19984 25.872 3.77584V28.3198C25.872 28.7838 25.488 29.1518 25.024 29.1518Z" stroke="#449AC5" stroke-miterlimit="10" stroke-linejoin="round"/>
<path id="Vector_2" d="M23.008 9.64795H8.976V23.552H23.008V9.64795Z" stroke="#449AC5" stroke-miterlimit="10" stroke-linejoin="round"/>
<path id="Vector_3" d="M6.128 26.4478H25.872" stroke="#449AC5" stroke-miterlimit="10" stroke-linejoin="round"/>
<path id="Vector_4" d="M25.92 3.80762L24.096 5.87162C23.472 6.57562 22.592 6.97562 21.664 6.97562H10.336C9.408 6.97562 8.512 6.57562 7.904 5.87162L6.08 3.80762" stroke="#449AC5" stroke-miterlimit="10" stroke-linejoin="round"/>
</g>
<g id="Group_2">
<path id="Vector_5" d="M13.808 20.704C15.6195 20.704 17.088 19.2355 17.088 17.424C17.088 15.6125 15.6195 14.144 13.808 14.144C11.9965 14.144 10.528 15.6125 10.528 17.424C10.528 19.2355 11.9965 20.704 13.808 20.704Z" stroke="#449AC5" stroke-miterlimit="10" stroke-linejoin="round"/>
<path id="Vector_6" d="M13.808 19.4879C14.9479 19.4879 15.872 18.5638 15.872 17.4239C15.872 16.2839 14.9479 15.3599 13.808 15.3599C12.6681 15.3599 11.744 16.2839 11.744 17.4239C11.744 18.5638 12.6681 19.4879 13.808 19.4879Z" stroke="#449AC5" stroke-miterlimit="10" stroke-linejoin="round"/>
</g>
<g id="Group_3">
<path id="Vector_7" d="M19.648 16.4961H19.616C18.672 16.4961 17.904 15.7281 17.904 14.7841V11.8081H21.376V14.7841C21.376 15.7281 20.608 16.4961 19.648 16.4961Z" stroke="#449AC5" stroke-miterlimit="10" stroke-linejoin="round"/>
<path id="Vector_8" d="M19.632 16.4961V20.7041" stroke="#449AC5" stroke-miterlimit="10" stroke-linejoin="round"/>
<path id="Vector_9" d="M18.56 20.7041H20.704" stroke="#449AC5" stroke-miterlimit="10" stroke-linecap="round" stroke-linejoin="round"/>
</g>
<path id="Vector_10" d="M10.08 5.52004C10.46 5.52004 10.768 5.21201 10.768 4.83204C10.768 4.45207 10.46 4.14404 10.08 4.14404C9.70003 4.14404 9.392 4.45207 9.392 4.83204C9.392 5.21201 9.70003 5.52004 10.08 5.52004Z" fill="#449AC5"/>
<path id="Vector_11" d="M12.624 5.52004C13.004 5.52004 13.312 5.21201 13.312 4.83204C13.312 4.45207 13.004 4.14404 12.624 4.14404C12.244 4.14404 11.936 4.45207 11.936 4.83204C11.936 5.21201 12.244 5.52004 12.624 5.52004Z" fill="#449AC5"/>
<path id="Vector_12" d="M21.536 5.51993H18.432C18.048 5.51993 17.744 5.21593 17.744 4.83193V4.81593C17.744 4.43193 18.048 4.12793 18.432 4.12793H21.536C21.92 4.12793 22.224 4.43193 22.224 4.81593V4.83193C22.208 5.21593 21.904 5.51993 21.536 5.51993Z" fill="#449AC5"/>
</g>
</svg>
