<svg width="32" height="32" viewBox="0 0 32 32" fill="none" xmlns="http://www.w3.org/2000/svg">
<g id="&#209;&#132;&#208;&#181;&#208;&#189; 1">
<g id="Group">
<path id="Vector" d="M9.11998 13.3922V21.8722C9.11998 23.1202 8.11198 24.1122 6.87998 24.1122H6.83198C5.58398 24.1122 4.59198 23.1042 4.59198 21.8722V12.7842" stroke="#449AC5" stroke-miterlimit="10" stroke-linejoin="round"/>
<path id="Vector_2" d="M19.36 12.064L7.648 13.584C5.12 13.904 2.88 11.936 2.88 9.392V9.296C2.88 6.752 5.12 4.784 7.648 5.104L19.36 6.624V12.064Z" stroke="#449AC5" stroke-miterlimit="10" stroke-linejoin="round"/>
<path id="Vector_3" d="M19.36 6.63977L22.976 5.75977L22.992 5.79177C23.952 8.06377 23.952 10.6398 22.992 12.9118L22.976 12.9438L19.36 12.0638" stroke="#449AC5" stroke-miterlimit="10" stroke-linejoin="round"/>
<path id="Vector_4" d="M7.83998 19.472H9.11998V16.832H7.83998C7.64798 16.832 7.48798 16.992 7.48798 17.184V19.12C7.48798 19.312 7.64798 19.472 7.83998 19.472Z" stroke="#449AC5" stroke-miterlimit="10" stroke-linejoin="round"/>
<path id="Vector_5" d="M7.616 24.1118V24.7038C7.616 25.1518 7.264 25.5038 6.816 25.5038H6.8C6.352 25.5038 6 25.1518 6 24.7038V24.1118" stroke="#449AC5" stroke-miterlimit="10" stroke-linejoin="round"/>
<path id="Vector_6" d="M6.84802 25.5361C6.84802 27.2961 8.27202 28.7361 10.048 28.7361H19.36" stroke="#449AC5" stroke-miterlimit="10" stroke-linecap="round" stroke-linejoin="round"/>
<path id="Vector_7" d="M7.08799 11.6322C8.35162 11.6322 9.37599 10.6078 9.37599 9.34415C9.37599 8.08053 8.35162 7.05615 7.08799 7.05615C5.82436 7.05615 4.79999 8.08053 4.79999 9.34415C4.79999 10.6078 5.82436 11.6322 7.08799 11.6322Z" stroke="#449AC5" stroke-miterlimit="10" stroke-linejoin="round"/>
<g id="Group_2">
<path id="Vector_8" d="M25.168 9.34375H29.232" stroke="#449AC5" stroke-miterlimit="10" stroke-linecap="round" stroke-linejoin="round"/>
<path id="Vector_9" d="M25.168 7.16797H29.232" stroke="#449AC5" stroke-miterlimit="10" stroke-linecap="round" stroke-linejoin="round"/>
<path id="Vector_10" d="M25.168 11.52H29.232" stroke="#449AC5" stroke-miterlimit="10" stroke-linecap="round" stroke-linejoin="round"/>
</g>
</g>
</g>
</svg>
