<svg width="32" height="32" viewBox="0 0 32 32" fill="none" xmlns="http://www.w3.org/2000/svg">
<g id="&#208;&#180;&#209;&#131;&#209;&#133;&#208;&#190;&#208;&#178;&#208;&#190;&#208;&#185; &#209;&#136;&#208;&#186;&#208;&#176;&#209;&#132; 1">
<g id="Group">
<g id="Group_2">
<path id="Vector" d="M27.088 25.632H4.768C4.032 25.632 3.44 25.04 3.44 24.304V6.28796C3.44 5.55196 4.032 4.95996 4.768 4.95996H27.088C27.824 4.95996 28.416 5.55196 28.416 6.28796V24.32C28.4 25.04 27.808 25.632 27.088 25.632Z" stroke="#449AC5" stroke-miterlimit="10" stroke-linecap="round" stroke-linejoin="round"/>
<path id="Vector_2" d="M3.44 9.87207H28.4" stroke="#449AC5" stroke-miterlimit="10" stroke-linecap="round" stroke-linejoin="round"/>
<path id="Vector_3" d="M6.16 7.4082H9.232" stroke="#449AC5" stroke-miterlimit="10" stroke-linecap="round" stroke-linejoin="round"/>
<path id="Vector_4" d="M16.16 8.36775C16.6902 8.36775 17.12 7.93795 17.12 7.40775C17.12 6.87756 16.6902 6.44775 16.16 6.44775C15.6298 6.44775 15.2 6.87756 15.2 7.40775C15.2 7.93795 15.6298 8.36775 16.16 8.36775Z" stroke="#449AC5" stroke-miterlimit="10" stroke-linejoin="round"/>
<path id="Vector_5" d="M20.032 8.36775C20.5622 8.36775 20.992 7.93795 20.992 7.40775C20.992 6.87756 20.5622 6.44775 20.032 6.44775C19.5018 6.44775 19.072 6.87756 19.072 7.40775C19.072 7.93795 19.5018 8.36775 20.032 8.36775Z" stroke="#449AC5" stroke-miterlimit="10" stroke-linejoin="round"/>
<path id="Vector_6" d="M23.904 8.36775C24.4342 8.36775 24.864 7.93795 24.864 7.40775C24.864 6.87756 24.4342 6.44775 23.904 6.44775C23.3738 6.44775 22.944 6.87756 22.944 7.40775C22.944 7.93795 23.3738 8.36775 23.904 8.36775Z" stroke="#449AC5" stroke-miterlimit="10" stroke-linejoin="round"/>
<path id="Vector_7" d="M11.584 4.95996V9.87196" stroke="#449AC5" stroke-miterlimit="10" stroke-linecap="round" stroke-linejoin="round"/>
</g>
<g id="Group_3">
<path id="Vector_8" d="M10.384 25.6638V27.1038C10.384 27.4398 10.112 27.7118 9.77601 27.7118H7.04001C6.70401 27.7118 6.43201 27.4398 6.43201 27.1038V25.6318" stroke="#449AC5" stroke-miterlimit="10" stroke-linejoin="round"/>
<path id="Vector_9" d="M25.408 25.6638V27.1038C25.408 27.4398 25.136 27.7118 24.8 27.7118H22.048C21.712 27.7118 21.44 27.4398 21.44 27.1038V25.6318" stroke="#449AC5" stroke-miterlimit="10" stroke-linejoin="round"/>
</g>
<path id="Vector_10" d="M23.792 22.752H8.064C7.328 22.752 6.736 22.16 6.736 21.424V13.6C6.736 12.864 7.328 12.272 8.064 12.272H23.792C24.528 12.272 25.12 12.864 25.12 13.6V21.424C25.12 22.16 24.512 22.752 23.792 22.752Z" stroke="#449AC5" stroke-miterlimit="10" stroke-linecap="round" stroke-linejoin="round"/>
<path id="Vector_11" d="M16.336 13.8237C16.336 14.6877 15.488 14.6877 15.488 15.5677C15.488 16.4477 16.336 16.4477 16.336 17.3117C16.336 18.1917 15.488 18.1917 15.488 19.0557" stroke="#449AC5" stroke-miterlimit="10" stroke-linecap="round" stroke-linejoin="round"/>
<path id="Vector_12" d="M13.344 13.8237C13.344 14.6877 12.496 14.6877 12.496 15.5677C12.496 16.4477 13.344 16.4477 13.344 17.3117C13.344 18.1917 12.496 18.1917 12.496 19.0557" stroke="#449AC5" stroke-miterlimit="10" stroke-linecap="round" stroke-linejoin="round"/>
<path id="Vector_13" d="M19.312 13.8237C19.312 14.6877 18.464 14.6877 18.464 15.5677C18.464 16.4477 19.312 16.4477 19.312 17.3117C19.312 18.1917 18.464 18.1917 18.464 19.0557" stroke="#449AC5" stroke-miterlimit="10" stroke-linecap="round" stroke-linejoin="round"/>
<path id="Vector_14" d="M9.232 20.8799H22.592" stroke="#449AC5" stroke-miterlimit="10" stroke-linecap="round" stroke-linejoin="round"/>
</g>
</g>
</svg>
