<?xml version="1.0" standalone="no"?>
<!DOCTYPE svg PUBLIC "-//W3C//DTD SVG 20010904//EN"
 "http://www.w3.org/TR/2001/REC-SVG-20010904/DTD/svg10.dtd">
<svg version="1.0" xmlns="http://www.w3.org/2000/svg"
 width="50.000000pt" height="50.000000pt" viewBox="0 0 50.000000 50.000000"
 preserveAspectRatio="xMidYMid meet">

<g transform="translate(0.000000,50.000000) scale(0.100000,-0.100000)"
fill="#000000" stroke="none">
<path d="M160 395 l0 -55 -55 0 c-30 0 -55 -4 -55 -10 0 -6 28 -10 65 -10 l65
0 0 65 c0 37 -4 65 -10 65 -5 0 -10 -25 -10 -55z"/>
<path d="M320 385 l0 -65 65 0 c37 0 65 4 65 10 0 6 -25 10 -55 10 l-55 0 0
55 c0 30 -4 55 -10 55 -6 0 -10 -28 -10 -65z"/>
<path d="M50 170 c0 -5 25 -10 55 -10 l55 0 0 -55 c0 -30 5 -55 10 -55 6 0 10
28 10 65 l0 65 -65 0 c-37 0 -65 -4 -65 -10z"/>
<path d="M320 115 c0 -37 4 -65 10 -65 6 0 10 25 10 55 l0 55 55 0 c30 0 55 5
55 10 0 6 -28 10 -65 10 l-65 0 0 -65z"/>
</g>
</svg>
