<svg width="32" height="32" viewBox="0 0 32 32" fill="none" xmlns="http://www.w3.org/2000/svg">
<g id="&#208;&#189;&#208;&#181;&#208;&#187;&#209;&#140;&#208;&#183;&#209;&#143; &#209;&#129; &#208;&#191;&#208;&#184;&#209;&#130;&#208;&#190;&#208;&#188;&#209;&#134;&#208;&#176;&#208;&#188;&#208;&#184; 1">
<g id="Group">
<g id="Group_2">
<g id="Group_3">
<path id="Vector" d="M16.336 27.232C22.4067 27.232 27.328 22.3108 27.328 16.24C27.328 10.1693 22.4067 5.24805 16.336 5.24805C10.2653 5.24805 5.344 10.1693 5.344 16.24C5.344 22.3108 10.2653 27.232 16.336 27.232Z" stroke="#449AC5" stroke-miterlimit="10" stroke-linejoin="round"/>
<path id="Vector_2" d="M16.336 27.232C22.4067 27.232 27.328 22.3108 27.328 16.24C27.328 10.1693 22.4067 5.24805 16.336 5.24805C10.2653 5.24805 5.344 10.1693 5.344 16.24C5.344 22.3108 10.2653 27.232 16.336 27.232Z" stroke="#449AC5" stroke-miterlimit="10" stroke-linejoin="round"/>
<path id="Vector_3" d="M8.56 24.0159L24.112 8.46387" stroke="#449AC5" stroke-miterlimit="10" stroke-linejoin="round"/>
</g>
</g>
<g id="Group_4">
<g id="Group_5">
<path id="Vector_4" d="M13.952 13.8402C14.8622 13.8402 15.6 12.7872 15.6 11.4882C15.6 10.1893 14.8622 9.13623 13.952 9.13623C13.0418 9.13623 12.304 10.1893 12.304 11.4882C12.304 12.7872 13.0418 13.8402 13.952 13.8402Z" stroke="#449AC5" stroke-miterlimit="10" stroke-linejoin="round"/>
<path id="Vector_5" d="M11.0553 16.9503C11.8011 16.5847 11.9832 15.4264 11.4619 14.3632C10.9407 13.3 9.91352 12.7345 9.1677 13.1001C8.42187 13.4658 8.2398 14.6241 8.76104 15.6873C9.28228 16.7505 10.3094 17.316 11.0553 16.9503Z" stroke="#449AC5" stroke-miterlimit="10" stroke-linejoin="round"/>
<path id="Vector_6" d="M23.5001 13.1069C22.7543 12.7412 21.7271 13.3067 21.2059 14.3699C20.6846 15.4331 20.8667 16.5914 21.6125 16.9571C22.3583 17.3227 23.3855 16.7572 23.9067 15.694C24.428 14.6308 24.2459 13.4725 23.5001 13.1069Z" stroke="#449AC5" stroke-miterlimit="10" stroke-linejoin="round"/>
<path id="Vector_7" d="M18.72 13.8402C19.6302 13.8402 20.368 12.7872 20.368 11.4882C20.368 10.1893 19.6302 9.13623 18.72 9.13623C17.8098 9.13623 17.072 10.1893 17.072 11.4882C17.072 12.7872 17.8098 13.8402 18.72 13.8402Z" stroke="#449AC5" stroke-miterlimit="10" stroke-linejoin="round"/>
</g>
<path id="Vector_8" d="M21.184 20.7682C21.184 24.1442 19.008 21.2802 16.32 21.2802C13.632 21.2802 11.456 24.1442 11.456 20.7682C11.456 17.3923 13.632 14.6562 16.32 14.6562C19.008 14.6562 21.184 17.3923 21.184 20.7682Z" stroke="#449AC5" stroke-miterlimit="10" stroke-linejoin="round"/>
</g>
</g>
</g>
</svg>
