<svg width="32" height="32" viewBox="0 0 32 32" fill="none" xmlns="http://www.w3.org/2000/svg">
<g id="&#208;&#186;&#209;&#131;&#209;&#128;&#208;&#181;&#208;&#189;&#208;&#184;&#208;&#181; &#208;&#183;&#208;&#176;&#208;&#191;&#209;&#128;&#208;&#181;&#209;&#137;&#208;&#181;&#208;&#189;&#208;&#190; 1">
<g id="Group">
<g id="Group_2">
<g id="Group_3">
<path id="Vector" d="M23.616 15.9517H8.256V18.7997H23.616V15.9517Z" stroke="#449AC5" stroke-miterlimit="10" stroke-linejoin="round"/>
<path id="Vector_2" d="M11.648 15.9517H10.272V18.7997H11.648V15.9517Z" stroke="#449AC5" stroke-miterlimit="10" stroke-linejoin="round"/>
</g>
<path id="Vector_3" d="M8.288 14.7516C8.288 14.7516 7.776 11.3116 10.128 11.3116C12.48 11.3116 15.088 11.4556 16.512 10.4316C16.512 10.4316 17.664 14.2396 13.888 13.9676C9.392 13.6476 8.288 14.7516 8.288 14.7516Z" stroke="#449AC5" stroke-miterlimit="10" stroke-linejoin="round"/>
</g>
<g id="Group_4">
<path id="Vector_4" d="M15.92 27.088C21.9907 27.088 26.912 22.1667 26.912 16.096C26.912 10.0253 21.9907 5.104 15.92 5.104C9.84929 5.104 4.928 10.0253 4.928 16.096C4.928 22.1667 9.84929 27.088 15.92 27.088Z" stroke="#449AC5" stroke-miterlimit="10" stroke-linejoin="round"/>
<path id="Vector_5" d="M15.92 27.088C21.9907 27.088 26.912 22.1667 26.912 16.096C26.912 10.0253 21.9907 5.104 15.92 5.104C9.84929 5.104 4.928 10.0253 4.928 16.096C4.928 22.1667 9.84929 27.088 15.92 27.088Z" stroke="#449AC5" stroke-miterlimit="10" stroke-linejoin="round"/>
<path id="Vector_6" d="M8.144 23.8718L23.696 8.31982" stroke="#449AC5" stroke-miterlimit="10" stroke-linejoin="round"/>
</g>
</g>
</g>
</svg>
