<svg width="28" height="29" viewBox="0 0 28 29" fill="none" xmlns="http://www.w3.org/2000/svg">
<path fill-rule="evenodd" clip-rule="evenodd" d="M10.323 2.51501C12.303 0.366009 15.697 0.366009 17.677 2.51501L26.677 12.283C27.528 13.206 28 14.416 28 15.671V26C28 27.657 26.657 29 25 29H3C1.343 29 0 27.657 0 26V15.671C0 14.416 0.471998 13.206 1.323 12.283L10.323 2.51501ZM11 27H17V18H11V27ZM9 27H3C2.448 27 2 26.552 2 26V15.671C2 14.918 2.28301 14.192 2.79401 13.638L11.794 3.86999C12.982 2.58099 15.018 2.58099 16.206 3.86999L25.206 13.638C25.717 14.192 26 14.918 26 15.671V26C26 26.552 25.552 27 25 27H19V18C19 16.895 18.105 16 17 16H11C9.895 16 9 16.895 9 18V27Z" fill="black"/>
</svg>
