<svg width="22" height="22" viewBox="0 0 22 22" fill="none" xmlns="http://www.w3.org/2000/svg">
<g id="bed 1">
<path id="Vector" d="M20.2383 9.14427V4.125C20.2383 2.82189 19.1781 1.76172 17.875 1.76172H4.125C2.82189 1.76172 1.76172 2.82189 1.76172 4.125V9.14427C0.749031 9.41102 0 10.3344 0 11.4297V17.0156C0 17.3716 0.288578 17.6602 0.644531 17.6602H1.33203V19.5938C1.33203 19.9497 1.62061 20.2383 1.97656 20.2383H4.55469C4.91064 20.2383 5.19922 19.9497 5.19922 19.5938V17.6602H16.8008V19.5938C16.8008 19.9497 17.0894 20.2383 17.4453 20.2383H20.0234C20.3794 20.2383 20.668 19.9497 20.668 19.5938V17.6602H21.3555C21.7114 17.6602 22 17.3716 22 17.0156V11.4297C22 10.3344 21.251 9.41102 20.2383 9.14427ZM3.05078 4.125C3.05078 3.53268 3.53268 3.05078 4.125 3.05078H17.875C18.4673 3.05078 18.9492 3.53268 18.9492 4.125V9.06641H17.6602V8.13699C17.6602 7.2279 16.9205 6.48828 16.0114 6.48828H13.2932C12.3842 6.48828 11.6445 7.2279 11.6445 8.13699V9.06641H10.3555V8.13699C10.3555 7.2279 9.61585 6.48828 8.70676 6.48828H5.98855C5.07946 6.48828 4.33984 7.2279 4.33984 8.13699V9.06641H3.05078V4.125ZM16.3711 9.06641H12.9336V8.13699C12.9336 7.93869 13.0949 7.77734 13.2932 7.77734H16.0114C16.2097 7.77734 16.3711 7.93869 16.3711 8.13699V9.06641ZM9.06641 9.06641H5.62891V8.13699C5.62891 7.93869 5.79025 7.77734 5.98855 7.77734H8.70676C8.90506 7.77734 9.06641 7.93869 9.06641 8.13699V9.06641ZM2.36328 10.3555H19.6367C20.229 10.3555 20.7109 10.8374 20.7109 11.4297V13.793H1.28906V11.4297C1.28906 10.8374 1.77096 10.3555 2.36328 10.3555ZM3.91016 18.9492H2.62109V17.6602H3.91016V18.9492ZM19.3789 18.9492H18.0898V17.6602H19.3789V18.9492ZM20.7109 16.3711H1.28906V15.082H20.7109V16.3711Z" fill="#E47524"/>
</g>
</svg>
