<svg width="22" height="22" viewBox="0 0 22 22" fill="none" xmlns="http://www.w3.org/2000/svg">
<g id="square 1" clip-path="url(#clip0_7642_3820)">
<g id="Group">
<path id="Vector" d="M22 3.88235V0H18.1176V1.29412H3.88235V0H0V3.88235H1.29412V18.1176H0V22H3.88235V20.7059H18.1176V22H22V18.1176H20.7059V3.88235H22ZM19.4118 1.29412H20.7059V2.58824H19.4118V1.29412ZM1.29412 1.29412H2.58824V2.58824H1.29412V1.29412ZM2.58824 20.7059H1.29412V19.4118H2.58824V20.7059ZM20.7059 20.7059H19.4118V19.4118H20.7059V20.7059ZM19.4118 18.1176H18.1176V19.4118H3.88235V18.1176H2.58824V3.88235H3.88235V2.58824H18.1176V3.88235H19.4118V18.1176Z" fill="#E47524"/>
<path id="Vector_2" d="M5.50781 10.0869L10.0825 5.51221L10.9975 6.42715L6.42275 11.0019L5.50781 10.0869Z" fill="#E47524"/>
<path id="Vector_3" d="M10.9961 15.5776L15.5708 11.0029L16.4858 11.9178L11.911 16.4926L10.9961 15.5776Z" fill="#E47524"/>
<path id="Vector_4" d="M6.87891 14.2046L14.1984 6.88506L15.1134 7.8L7.79385 15.1195L6.87891 14.2046Z" fill="#E47524"/>
</g>
</g>
<defs>
<clipPath id="clip0_7642_3820">
<rect width="22" height="22" fill="white"/>
</clipPath>
</defs>
</svg>
