<svg width="32" height="32" viewBox="0 0 32 32" fill="none" xmlns="http://www.w3.org/2000/svg">
<g id="&#208;&#180;&#208;&#190;&#208;&#188;&#208;&#176;&#209;&#136;&#208;&#189;&#208;&#184;&#208;&#185; &#208;&#186;&#208;&#184;&#208;&#189;&#208;&#190;&#209;&#130;&#208;&#181;&#208;&#176;&#209;&#130;&#209;&#128; 1">
<g id="Group">
<g id="Group_2">
<path id="Vector" d="M5.472 6.72021H2.224V20.0962H5.472V6.72021Z" stroke="#449AC5" stroke-miterlimit="10" stroke-linejoin="round"/>
<path id="Vector_2" d="M3.85602 20.0962V25.3762" stroke="#449AC5" stroke-miterlimit="10" stroke-linejoin="round"/>
<path id="Vector_3" d="M2.224 25.376H5.488" stroke="#449AC5" stroke-miterlimit="10" stroke-linecap="round" stroke-linejoin="round"/>
</g>
<g id="Group_3">
<path id="Vector_4" d="M29.76 6.72021H26.512V20.0962H29.76V6.72021Z" stroke="#449AC5" stroke-miterlimit="10" stroke-linejoin="round"/>
<path id="Vector_5" d="M28.144 20.0962V25.3762" stroke="#449AC5" stroke-miterlimit="10" stroke-linejoin="round"/>
<path id="Vector_6" d="M26.512 25.376H29.776" stroke="#449AC5" stroke-miterlimit="10" stroke-linecap="round" stroke-linejoin="round"/>
</g>
<g id="Group_4">
<g id="Group_5">
<path id="Vector_7" d="M23.936 16.9122H8.06401C7.84001 16.9122 7.64801 16.7202 7.64801 16.4962V7.13621C7.64801 6.91221 7.84001 6.72021 8.06401 6.72021H23.936C24.16 6.72021 24.352 6.91221 24.352 7.13621V16.4962C24.352 16.7362 24.16 16.9122 23.936 16.9122Z" stroke="#449AC5" stroke-miterlimit="10" stroke-linecap="round" stroke-linejoin="round"/>
<path id="Vector_8" d="M9.31201 10.9121L12 8.22412" stroke="#449AC5" stroke-miterlimit="10" stroke-linecap="round" stroke-linejoin="round"/>
<path id="Vector_9" d="M9.15204 13.6001L14.848 8.22412" stroke="#449AC5" stroke-miterlimit="10" stroke-linecap="round" stroke-linejoin="round"/>
</g>
<g id="Group_6">
<path id="Vector_10" d="M24.336 20.0962H7.64801V25.3762H24.336V20.0962Z" stroke="#449AC5" stroke-miterlimit="10" stroke-linecap="round" stroke-linejoin="round"/>
<path id="Vector_11" d="M7.64801 21.7124H24.352" stroke="#449AC5" stroke-miterlimit="10" stroke-linejoin="round"/>
<path id="Vector_12" d="M16.08 21.7124V25.3764" stroke="#449AC5" stroke-miterlimit="10" stroke-linejoin="round"/>
</g>
</g>
</g>
</g>
</svg>
