<svg width="32" height="32" viewBox="0 0 32 32" fill="none" xmlns="http://www.w3.org/2000/svg">
<g id="&#208;&#176;&#208;&#187;&#208;&#184;&#209;&#129;&#208;&#176; 1">
<g id="Group">
<path id="Vector" d="M22.16 27.0882H10.16C9.50402 27.0882 8.96002 26.5442 8.96002 25.8882V8.88018C8.96002 8.22418 9.50402 7.68018 10.16 7.68018H22.16C22.816 7.68018 23.36 8.22418 23.36 8.88018V25.9042C23.36 26.5602 22.832 27.0882 22.16 27.0882Z" stroke="#449AC5" stroke-miterlimit="10" stroke-linejoin="round"/>
<path id="Vector_2" d="M19.952 7.68012H12.384V5.64812C12.384 5.36012 12.624 5.12012 12.912 5.12012H19.424C19.712 5.12012 19.952 5.36012 19.952 5.64812V7.68012Z" stroke="#449AC5" stroke-miterlimit="10" stroke-linejoin="round"/>
<path id="Vector_3" d="M16.16 24.1759C16.9553 24.1759 17.6 23.5312 17.6 22.7359C17.6 21.9406 16.9553 21.2959 16.16 21.2959C15.3647 21.2959 14.72 21.9406 14.72 22.7359C14.72 23.5312 15.3647 24.1759 16.16 24.1759Z" stroke="#449AC5" stroke-miterlimit="10" stroke-linejoin="round"/>
<path id="Vector_4" d="M10.976 19.5199V10.7199C10.976 10.2079 11.392 9.77588 11.92 9.77588H15.712" stroke="#449AC5" stroke-miterlimit="10" stroke-linecap="round" stroke-linejoin="round"/>
</g>
</g>
</svg>
