<svg width="32" height="32" viewBox="0 0 32 32" fill="none" xmlns="http://www.w3.org/2000/svg">
<g id="&#208;&#191;&#208;&#190;&#209;&#129;&#209;&#130;&#208;&#181;&#208;&#187;&#209;&#140;&#208;&#189;&#208;&#190;&#208;&#181; &#208;&#177;&#208;&#181;&#208;&#187;&#209;&#140;&#208;&#181; 1">
<g id="Group">
<g id="Group_2">
<path id="Vector" d="M6.144 22.9437C5.104 22.9437 4.256 22.0957 4.256 21.0557V21.0237C4.256 19.9837 5.104 19.1357 6.144 19.1357H15.776H24.032C26.112 19.1357 27.808 20.8317 27.808 22.9117V22.9917C27.808 25.0717 26.112 26.7677 24.032 26.7677H16.368H6.144C5.104 26.7677 4.256 25.9197 4.256 24.8797V24.8477C4.256 23.7757 5.104 22.9437 6.144 22.9437ZM6.144 22.9437H22.544" stroke="#449AC5" stroke-miterlimit="10" stroke-linecap="round" stroke-linejoin="round"/>
</g>
<path id="Vector_2" d="M25.584 16.0161C26.624 16.0161 27.472 16.7041 27.472 17.5521V17.5841C27.472 18.4321 26.624 19.1201 25.584 19.1201H15.952H7.696C5.616 19.1201 3.92 17.7441 3.92 16.0481V15.9841C3.92 14.2881 5.616 12.9121 7.696 12.9121H15.36H25.584C26.624 12.9121 27.472 13.6001 27.472 14.4481V14.4801C27.472 15.3281 26.624 16.0161 25.584 16.0161ZM25.584 16.0161H9.184" stroke="#449AC5" stroke-miterlimit="10" stroke-linecap="round" stroke-linejoin="round"/>
<path id="Vector_3" d="M27.472 9.13598C27.472 9.13598 22.272 12.896 15.872 12.896C9.472 12.896 4.256 9.13598 4.256 9.13598C4.256 9.13598 9.456 5.37598 15.856 5.37598C22.256 5.37598 27.472 9.13598 27.472 9.13598Z" stroke="#449AC5" stroke-miterlimit="10" stroke-linecap="round" stroke-linejoin="round"/>
</g>
</g>
</svg>
