<svg width="32" height="32" viewBox="0 0 32 32" fill="none" xmlns="http://www.w3.org/2000/svg">
<g id="&#208;&#188;&#208;&#184;&#208;&#186;&#209;&#128;&#208;&#190;&#208;&#178;&#208;&#190;&#208;&#187;&#208;&#189;&#208;&#190;&#208;&#178;&#208;&#186;&#208;&#176; 1">
<g id="Group">
<path id="Vector" d="M27.68 24.2721H4.304C3.392 24.2721 2.656 23.5361 2.656 22.6241V9.31206C2.656 8.40006 3.392 7.66406 4.304 7.66406H27.68C28.592 7.66406 29.328 8.40006 29.328 9.31206V22.6241C29.328 23.5361 28.592 24.2721 27.68 24.2721Z" stroke="#449AC5" stroke-miterlimit="10" stroke-linecap="round" stroke-linejoin="round"/>
<path id="Vector_2" d="M22.8 7.69629V24.2723" stroke="#449AC5" stroke-miterlimit="10" stroke-linecap="round" stroke-linejoin="round"/>
<g id="Group_2">
<path id="Vector_3" d="M25.952 13.0402C26.8798 13.0402 27.632 12.288 27.632 11.3602C27.632 10.4323 26.8798 9.68018 25.952 9.68018C25.0242 9.68018 24.272 10.4323 24.272 11.3602C24.272 12.288 25.0242 13.0402 25.952 13.0402Z" stroke="#449AC5" stroke-miterlimit="10" stroke-linecap="round" stroke-linejoin="round"/>
<path id="Vector_4" d="M25.952 9.68018V11.3602" stroke="#449AC5" stroke-miterlimit="10" stroke-linecap="round" stroke-linejoin="round"/>
</g>
<g id="Group_3">
<path id="Vector_5" d="M25.952 18.1442C26.8798 18.1442 27.632 17.392 27.632 16.4642C27.632 15.5363 26.8798 14.7842 25.952 14.7842C25.0242 14.7842 24.272 15.5363 24.272 16.4642C24.272 17.392 25.0242 18.1442 25.952 18.1442Z" stroke="#449AC5" stroke-miterlimit="10" stroke-linecap="round" stroke-linejoin="round"/>
<path id="Vector_6" d="M25.952 14.7842V16.4642" stroke="#449AC5" stroke-miterlimit="10" stroke-linecap="round" stroke-linejoin="round"/>
</g>
<path id="Vector_7" d="M27.632 20.5122H24.304V22.0002H27.632V20.5122Z" stroke="#449AC5" stroke-miterlimit="10" stroke-linecap="round" stroke-linejoin="round"/>
<path id="Vector_8" d="M20.592 10.6079H4.88V21.3599H20.592V10.6079Z" stroke="#449AC5" stroke-miterlimit="10" stroke-linecap="round" stroke-linejoin="round"/>
<path id="Vector_9" d="M18.592 12.5601V18.6881" stroke="#449AC5" stroke-miterlimit="10" stroke-linecap="round" stroke-linejoin="round"/>
</g>
</g>
</svg>
