<svg width="32" height="32" viewBox="0 0 32 32" fill="none" xmlns="http://www.w3.org/2000/svg">
<g id="&#208;&#162;&#208;&#181;&#208;&#191;&#208;&#187;&#209;&#139;&#208;&#185; &#208;&#191;&#208;&#190;&#208;&#187; 2 1">
<g id="Group">
<g id="Group_2">
<g id="Group_3">
<path id="Vector" d="M16.496 6.33594C16.176 6.70394 15.92 7.10394 15.92 7.80794C15.92 9.51994 17.52 9.51994 17.52 11.2319C17.52 12.9439 15.92 12.9439 15.92 14.6559" stroke="#449AC5" stroke-linecap="round" stroke-linejoin="round"/>
<g id="Group_4">
<path id="Vector_2" d="M14.752 6.5599L16.224 6.7039L17.136 7.8719L17.52 4.3999L14.752 6.5599Z" fill="#449AC5"/>
</g>
</g>
</g>
<g id="Group_5">
<g id="Group_6">
<path id="Vector_3" d="M9.95204 6.33594C9.63204 6.70394 9.37604 7.10394 9.37604 7.80794C9.37604 9.51994 10.976 9.51994 10.976 11.2319C10.976 12.9439 9.37604 12.9439 9.37604 14.6559" stroke="#449AC5" stroke-linecap="round" stroke-linejoin="round"/>
<g id="Group_7">
<path id="Vector_4" d="M8.20801 6.5599L9.68001 6.7039L10.592 7.8719L10.976 4.3999L8.20801 6.5599Z" fill="#449AC5"/>
</g>
</g>
</g>
<g id="Group_8">
<g id="Group_9">
<path id="Vector_5" d="M23.056 6.33594C22.736 6.70394 22.48 7.10394 22.48 7.80794C22.48 9.51994 24.08 9.51994 24.08 11.2319C24.08 12.9439 22.48 12.9439 22.48 14.6559" stroke="#449AC5" stroke-linecap="round" stroke-linejoin="round"/>
<g id="Group_10">
<path id="Vector_6" d="M21.312 6.5599L22.784 6.7039L23.696 7.8719L24.064 4.3999L21.312 6.5599Z" fill="#449AC5"/>
</g>
</g>
</g>
</g>
<g id="Group_11">
<path id="Vector_7" d="M26.112 24.7524H6.04797V26.9444H26.112V24.7524Z" stroke="#449AC5" stroke-miterlimit="10" stroke-linejoin="round"/>
<path id="Vector_8" d="M8.28797 17.3442H23.872L26.112 24.7522H6.04797L8.28797 17.3442Z" stroke="#449AC5" stroke-miterlimit="10" stroke-linejoin="round"/>
<path id="Vector_9" d="M16.08 17.3442V24.6402" stroke="#449AC5" stroke-miterlimit="10" stroke-linejoin="round"/>
<path id="Vector_10" d="M7.39197 20.2881H24.768" stroke="#449AC5" stroke-miterlimit="10" stroke-linejoin="round"/>
</g>
</g>
</svg>
