<svg width="32" height="32" viewBox="0 0 32 32" fill="none" xmlns="http://www.w3.org/2000/svg">
<g id="&#208;&#191;&#208;&#190;&#208;&#187;&#208;&#190;&#209;&#130;&#208;&#181;&#208;&#189;&#209;&#134;&#208;&#176; 1">
<g id="Group">
<path id="Vector" d="M7.13599 9.67969V27.1997H21.408V23.1837" stroke="#449AC5" stroke-miterlimit="10" stroke-linejoin="round"/>
<path id="Vector_2" d="M9.12 4.7998H22.688C24.176 4.7998 25.392 6.0158 25.392 7.5038V23.1838H11.12V6.7678C11.12 5.6798 10.24 4.7998 9.152 4.7998H9.12ZM9.12 4.7998C8.032 4.7998 7.152 5.6798 7.152 6.7678V7.8718" stroke="#449AC5" stroke-miterlimit="10" stroke-linejoin="round"/>
<path id="Vector_3" d="M25.392 14.832H11.12V18.016H25.392V14.832Z" stroke="#449AC5" stroke-miterlimit="10" stroke-linejoin="round"/>
<path id="Vector_4" d="M11.12 9.67969H4.44801" stroke="#449AC5" stroke-miterlimit="10" stroke-linejoin="round"/>
<path id="Vector_5" d="M4.448 7.87158H11.12" stroke="#449AC5" stroke-miterlimit="10" stroke-linejoin="round"/>
<path id="Vector_6" d="M3.28 10.2558C4.1018 10.2558 4.768 9.58958 4.768 8.76778C4.768 7.94599 4.1018 7.27979 3.28 7.27979C2.4582 7.27979 1.792 7.94599 1.792 8.76778C1.792 9.58958 2.4582 10.2558 3.28 10.2558Z" stroke="#449AC5" stroke-miterlimit="10" stroke-linejoin="round"/>
<path id="Vector_7" d="M25.392 9.67969H27.472" stroke="#449AC5" stroke-miterlimit="10" stroke-linejoin="round"/>
<path id="Vector_8" d="M27.472 7.87158H25.392" stroke="#449AC5" stroke-miterlimit="10" stroke-linejoin="round"/>
<path id="Vector_9" d="M28.656 10.2558C29.4778 10.2558 30.144 9.58958 30.144 8.76778C30.144 7.94599 29.4778 7.27979 28.656 7.27979C27.8342 7.27979 27.168 7.94599 27.168 8.76778C27.168 9.58958 27.8342 10.2558 28.656 10.2558Z" stroke="#449AC5" stroke-miterlimit="10" stroke-linejoin="round"/>
</g>
</g>
</svg>
