<svg width="32" height="32" viewBox="0 0 32 32" fill="none" xmlns="http://www.w3.org/2000/svg">
<g id="&#209;&#135;&#208;&#176;&#208;&#185;&#208;&#189;&#208;&#184;&#208;&#186; 1">
<g id="Group">
<path id="Vector" d="M22.944 24.512C22.944 24.512 23.632 14.848 21.312 5.04004H8.752C6.416 14.848 7.104 24.512 7.104 24.512" stroke="#449AC5" stroke-miterlimit="10" stroke-linejoin="round"/>
<path id="Vector_2" d="M24.48 26.9598H5.584V26.8158C5.584 25.4398 6.704 24.3198 8.08 24.3198H21.984C23.36 24.3198 24.48 25.4398 24.48 26.8158V26.9598Z" stroke="#449AC5" stroke-miterlimit="10" stroke-linecap="round" stroke-linejoin="round"/>
<path id="Vector_3" d="M7.616 11.376C7.616 11.376 5.152 8.70404 4.64 5.04004H10.32" stroke="#449AC5" stroke-miterlimit="10" stroke-linejoin="round"/>
<g id="Group_2">
<path id="Vector_4" d="M14.992 20.528H14.96C13.872 20.528 13.008 19.648 13.008 18.576V11.056C13.008 9.968 13.888 9.104 14.96 9.104H14.992C16.08 9.104 16.944 9.984 16.944 11.056V18.576C16.944 19.664 16.064 20.528 14.992 20.528Z" stroke="#449AC5" stroke-miterlimit="10" stroke-linejoin="round"/>
<g id="Group_3">
<path id="Vector_5" d="M13.152 12.208H14.96" stroke="#449AC5" stroke-miterlimit="10" stroke-linecap="round" stroke-linejoin="round"/>
<path id="Vector_6" d="M13.152 14.8159H14.96" stroke="#449AC5" stroke-miterlimit="10" stroke-linecap="round" stroke-linejoin="round"/>
<path id="Vector_7" d="M13.152 17.4238H14.96" stroke="#449AC5" stroke-miterlimit="10" stroke-linecap="round" stroke-linejoin="round"/>
</g>
</g>
<path id="Vector_8" d="M21.312 5.04004H24.48C25.696 5.04004 26.72 5.92004 26.912 7.12004C27.152 8.67204 27.424 10.912 27.408 13.168C27.408 13.68 27.312 14.176 27.136 14.656L27.12 14.688C26.656 15.92 25.68 16.88 24.448 17.328L23.04 17.84" stroke="#449AC5" stroke-miterlimit="10" stroke-linejoin="round"/>
<path id="Vector_9" d="M21.728 6.94385H23.616C24.464 6.94385 25.2 7.56785 25.328 8.39985C25.504 9.48785 25.696 11.0718 25.68 12.6558C25.68 13.0078 25.616 13.3758 25.488 13.7118V13.7278C25.168 14.5918 24.48 15.2798 23.616 15.5838L22.88 15.8398" stroke="#449AC5" stroke-miterlimit="10" stroke-linejoin="round"/>
</g>
</g>
</svg>
