<svg width="32" height="32" viewBox="0 0 32 32" fill="none" xmlns="http://www.w3.org/2000/svg">
<g id="&#208;&#191;&#208;&#187;&#208;&#184;&#209;&#130;&#208;&#176; 1">
<g id="Group">
<path id="Vector" d="M24.784 27.7601H7.07199C5.59999 27.7601 4.39999 26.5601 4.39999 25.0881V6.89612C4.39999 5.42412 5.59999 4.22412 7.07199 4.22412H24.784C26.256 4.22412 27.456 5.42412 27.456 6.89612V25.0881C27.44 26.5601 26.256 27.7601 24.784 27.7601Z" stroke="#449AC5" stroke-miterlimit="10" stroke-linecap="round" stroke-linejoin="round"/>
<g id="Group_2">
<g id="Group_3">
<path id="Vector_2" d="M10.512 14.4642C12.7476 14.4642 14.56 12.6518 14.56 10.4162C14.56 8.18052 12.7476 6.36816 10.512 6.36816C8.27635 6.36816 6.464 8.18052 6.464 10.4162C6.464 12.6518 8.27635 14.4642 10.512 14.4642Z" stroke="#449AC5" stroke-miterlimit="10" stroke-linecap="round" stroke-linejoin="round"/>
<path id="Vector_3" d="M10.512 12.4959C11.6608 12.4959 12.592 11.5647 12.592 10.4159C12.592 9.26719 11.6608 8.33594 10.512 8.33594C9.36325 8.33594 8.432 9.26719 8.432 10.4159C8.432 11.5647 9.36325 12.4959 10.512 12.4959Z" stroke="#449AC5" stroke-miterlimit="10" stroke-linecap="round" stroke-linejoin="round"/>
</g>
<g id="Group_4">
<path id="Vector_4" d="M10.512 24.4642C12.7476 24.4642 14.56 22.6518 14.56 20.4162C14.56 18.1805 12.7476 16.3682 10.512 16.3682C8.27635 16.3682 6.464 18.1805 6.464 20.4162C6.464 22.6518 8.27635 24.4642 10.512 24.4642Z" stroke="#449AC5" stroke-miterlimit="10" stroke-linecap="round" stroke-linejoin="round"/>
<path id="Vector_5" d="M10.512 22.4959C11.6608 22.4959 12.592 21.5647 12.592 20.4159C12.592 19.2672 11.6608 18.3359 10.512 18.3359C9.36325 18.3359 8.432 19.2672 8.432 20.4159C8.432 21.5647 9.36325 22.4959 10.512 22.4959Z" stroke="#449AC5" stroke-miterlimit="10" stroke-linecap="round" stroke-linejoin="round"/>
</g>
<g id="Group_5">
<path id="Vector_6" d="M21.312 14.4642C23.5476 14.4642 25.36 12.6518 25.36 10.4162C25.36 8.18052 23.5476 6.36816 21.312 6.36816C19.0763 6.36816 17.264 8.18052 17.264 10.4162C17.264 12.6518 19.0763 14.4642 21.312 14.4642Z" stroke="#449AC5" stroke-miterlimit="10" stroke-linecap="round" stroke-linejoin="round"/>
<path id="Vector_7" d="M21.312 12.4959C22.4607 12.4959 23.392 11.5647 23.392 10.4159C23.392 9.26719 22.4607 8.33594 21.312 8.33594C20.1632 8.33594 19.232 9.26719 19.232 10.4159C19.232 11.5647 20.1632 12.4959 21.312 12.4959Z" stroke="#449AC5" stroke-miterlimit="10" stroke-linecap="round" stroke-linejoin="round"/>
</g>
<g id="Group_6">
<path id="Vector_8" d="M21.312 24.4642C23.5476 24.4642 25.36 22.6518 25.36 20.4162C25.36 18.1805 23.5476 16.3682 21.312 16.3682C19.0763 16.3682 17.264 18.1805 17.264 20.4162C17.264 22.6518 19.0763 24.4642 21.312 24.4642Z" stroke="#449AC5" stroke-miterlimit="10" stroke-linecap="round" stroke-linejoin="round"/>
<path id="Vector_9" d="M21.312 22.4959C22.4607 22.4959 23.392 21.5647 23.392 20.4159C23.392 19.2672 22.4607 18.3359 21.312 18.3359C20.1632 18.3359 19.232 19.2672 19.232 20.4159C19.232 21.5647 20.1632 22.4959 21.312 22.4959Z" stroke="#449AC5" stroke-miterlimit="10" stroke-linecap="round" stroke-linejoin="round"/>
</g>
</g>
<g id="Group_7">
<path id="Vector_10" d="M14.72 26.1762C15.0646 26.1762 15.344 25.8968 15.344 25.5522C15.344 25.2076 15.0646 24.9282 14.72 24.9282C14.3754 24.9282 14.096 25.2076 14.096 25.5522C14.096 25.8968 14.3754 26.1762 14.72 26.1762Z" fill="#449AC5"/>
<path id="Vector_11" d="M17.136 26.1762C17.4806 26.1762 17.76 25.8968 17.76 25.5522C17.76 25.2076 17.4806 24.9282 17.136 24.9282C16.7914 24.9282 16.512 25.2076 16.512 25.5522C16.512 25.8968 16.7914 26.1762 17.136 26.1762Z" fill="#449AC5"/>
</g>
</g>
</g>
</svg>
