<svg width="32" height="32" viewBox="0 0 32 32" fill="none" xmlns="http://www.w3.org/2000/svg">
<g id="&#208;&#155;&#209;&#139;&#208;&#182;&#208;&#184; 1">
<g id="Group">
<path id="Vector" d="M25.104 4.7041H25.056C23.968 4.7041 23.088 5.6161 23.152 6.7041L23.456 12.7681C23.584 15.2001 23.584 17.6321 23.456 20.0641L23.152 26.1281C23.104 27.2161 23.968 28.1281 25.056 28.1281H25.104C26.192 28.1281 27.072 27.2161 27.008 26.1281L26.704 20.0641C26.576 17.6321 26.576 15.2001 26.704 12.7681L27.008 6.7041C27.056 5.6161 26.192 4.7041 25.104 4.7041Z" stroke="#449AC5" stroke-miterlimit="10" stroke-linecap="round" stroke-linejoin="round"/>
<path id="Vector_2" d="M19.824 4.7041H19.776C18.688 4.7041 17.808 5.6161 17.872 6.7041L18.176 12.7681C18.304 15.2001 18.304 17.6321 18.176 20.0641L17.872 26.1281C17.824 27.2161 18.688 28.1281 19.776 28.1281H19.824C20.912 28.1281 21.792 27.2161 21.728 26.1281L21.424 20.0641C21.296 17.6321 21.296 15.2001 21.424 12.7681L21.728 6.7041C21.792 5.6161 20.912 4.7041 19.824 4.7041Z" stroke="#449AC5" stroke-miterlimit="10" stroke-linecap="round" stroke-linejoin="round"/>
</g>
<g id="Group_2">
<g id="Group_3">
<path id="Vector_3" d="M8.17595 4.7041H6.86395V8.3361H8.17595V4.7041Z" stroke="#449AC5" stroke-miterlimit="10" stroke-linecap="round" stroke-linejoin="round"/>
<path id="Vector_4" d="M7.51996 8.41602V27.968" stroke="#449AC5" stroke-miterlimit="10" stroke-linecap="round" stroke-linejoin="round"/>
<path id="Vector_5" d="M6.38397 26.3042H8.65597" stroke="#449AC5" stroke-miterlimit="10" stroke-linecap="round" stroke-linejoin="round"/>
<path id="Vector_6" d="M6.86398 5.18408C6.86398 5.18408 2.35198 7.18408 3.66398 8.48008C4.97598 9.77608 6.86398 5.18408 6.86398 5.18408Z" stroke="#449AC5" stroke-miterlimit="10" stroke-linecap="round" stroke-linejoin="round"/>
</g>
<g id="Group_4">
<path id="Vector_7" d="M11.904 4.7041H10.592V8.3361H11.904V4.7041Z" stroke="#449AC5" stroke-miterlimit="10" stroke-linecap="round" stroke-linejoin="round"/>
<path id="Vector_8" d="M11.248 8.41602V27.968" stroke="#449AC5" stroke-miterlimit="10" stroke-linecap="round" stroke-linejoin="round"/>
<path id="Vector_9" d="M12.384 26.3042H10.128" stroke="#449AC5" stroke-miterlimit="10" stroke-linecap="round" stroke-linejoin="round"/>
<path id="Vector_10" d="M11.904 5.18408C11.904 5.18408 16.416 7.18408 15.104 8.48008C13.792 9.77608 11.904 5.18408 11.904 5.18408Z" stroke="#449AC5" stroke-miterlimit="10" stroke-linecap="round" stroke-linejoin="round"/>
</g>
</g>
<path id="Vector_11" d="M26.624 17.9678H23.536" stroke="#449AC5" stroke-miterlimit="10" stroke-linejoin="round"/>
<path id="Vector_12" d="M23.552 15.4399H26.624" stroke="#449AC5" stroke-miterlimit="10" stroke-linejoin="round"/>
<path id="Vector_13" d="M18.272 15.4399H21.344" stroke="#449AC5" stroke-miterlimit="10" stroke-linejoin="round"/>
<path id="Vector_14" d="M21.36 17.9678H18.256" stroke="#449AC5" stroke-miterlimit="10" stroke-linejoin="round"/>
</g>
</svg>
