<svg width="32" height="32" viewBox="0 0 32 32" fill="none" xmlns="http://www.w3.org/2000/svg">
<g id="&#208;&#177;&#208;&#181;&#208;&#183; &#208;&#178;&#208;&#181;&#209;&#135;&#208;&#181;&#209;&#128;&#208;&#184;&#208;&#189;&#208;&#190;&#208;&#186; 1">
<g id="Group">
<g id="Group_2">
<g id="Group_3">
<g id="Group_4">
<path id="Vector" d="M16 26.944C22.0707 26.944 26.992 22.0227 26.992 15.952C26.992 9.88125 22.0707 4.95996 16 4.95996C9.92929 4.95996 5.008 9.88125 5.008 15.952C5.008 22.0227 9.92929 26.944 16 26.944Z" stroke="#449AC5" stroke-miterlimit="10" stroke-linejoin="round"/>
<path id="Vector_2" d="M16 26.944C22.0707 26.944 26.992 22.0227 26.992 15.952C26.992 9.88125 22.0707 4.95996 16 4.95996C9.92929 4.95996 5.008 9.88125 5.008 15.952C5.008 22.0227 9.92929 26.944 16 26.944Z" stroke="#449AC5" stroke-miterlimit="10" stroke-linejoin="round"/>
<path id="Vector_3" d="M8.22401 23.7278L23.776 8.17578" stroke="#449AC5" stroke-miterlimit="10" stroke-linejoin="round"/>
</g>
</g>
</g>
<g id="Group_5">
<path id="Vector_4" d="M19.888 17.0402L11.312 24.0482L12.624 13.0562" stroke="#449AC5" stroke-miterlimit="10" stroke-linejoin="round"/>
<path id="Vector_5" d="M15.7395 15.9769C17.8235 17.1203 19.8299 17.4694 20.2209 16.7566C20.6119 16.0439 19.2395 14.5393 17.1556 13.3959C15.0717 12.2526 13.0653 11.9035 12.6743 12.6162C12.2832 13.3289 13.6556 14.8336 15.7395 15.9769Z" stroke="#449AC5" stroke-miterlimit="10" stroke-linejoin="round"/>
<path id="Vector_6" d="M17.296 19.1522C16.512 18.9922 15.552 18.6402 14.576 18.0962C13.6 17.5682 12.784 16.9442 12.224 16.3682" stroke="#449AC5" stroke-miterlimit="10" stroke-linejoin="round"/>
<path id="Vector_7" d="M14.592 21.3603C14.128 21.1843 13.648 20.9603 13.152 20.6883C12.656 20.4163 12.208 20.1283 11.808 19.8403" stroke="#449AC5" stroke-miterlimit="10" stroke-linejoin="round"/>
<path id="Vector_8" d="M22.704 12.8799C22.704 12.8799 22.816 13.9839 21.712 13.5199C20.288 12.9279 20.48 14.2559 20.48 14.2559" stroke="#449AC5" stroke-miterlimit="10" stroke-linecap="round" stroke-linejoin="round"/>
<path id="Vector_9" d="M15.184 11.3121C15.184 11.3121 14.192 10.8321 15.152 10.1281C16.4 9.2161 15.168 8.7041 15.168 8.7041" stroke="#449AC5" stroke-miterlimit="10" stroke-linecap="round" stroke-linejoin="round"/>
<path id="Vector_10" d="M18.048 12.0962C18.048 12.0962 17.264 11.3122 18.4 10.9602C19.872 10.5122 18.88 9.61621 18.88 9.61621" stroke="#449AC5" stroke-miterlimit="10" stroke-linecap="round" stroke-linejoin="round"/>
<path id="Vector_11" d="M17.216 9.2961C17.216 9.2961 17.456 8.54411 17.216 7.80811" stroke="#449AC5" stroke-miterlimit="10" stroke-linecap="round" stroke-linejoin="round"/>
<path id="Vector_12" d="M23.12 11.3438C23.12 11.3438 22.336 11.4078 21.744 11.9038" stroke="#449AC5" stroke-miterlimit="10" stroke-linecap="round" stroke-linejoin="round"/>
</g>
</g>
</g>
</svg>
