<svg width="32" height="32" viewBox="0 0 32 32" fill="none" xmlns="http://www.w3.org/2000/svg">
<g id="&#208;&#188;&#208;&#190;&#208;&#182;&#208;&#189;&#208;&#190; &#209;&#129; &#208;&#180;&#208;&#181;&#209;&#130;&#209;&#140;&#208;&#188;&#208;&#184; 1">
<g id="Group">
<path id="Vector" d="M25.584 14.5922C25.552 14.5922 25.504 14.5922 25.472 14.5922C24.752 9.93616 20.72 6.36816 15.872 6.36816C11.024 6.36816 6.976 9.93616 6.272 14.5922C6.24 14.5922 6.192 14.5922 6.16 14.5922C5.328 14.5922 4.672 15.2642 4.672 16.0802C4.672 16.8962 5.344 17.5682 6.16 17.5682C6.192 17.5682 6.24 17.5682 6.272 17.5682C6.992 22.2242 11.024 25.7922 15.872 25.7922C20.72 25.7922 24.768 22.2242 25.472 17.5682C25.504 17.5682 25.552 17.5682 25.584 17.5682C26.416 17.5682 27.072 16.8962 27.072 16.0802C27.072 15.2642 26.4 14.5922 25.584 14.5922Z" stroke="#449AC5" stroke-miterlimit="10" stroke-linecap="round" stroke-linejoin="round"/>
<path id="Vector_2" d="M10.56 15.7761L10.576 15.7601C11.376 14.7681 12.752 14.7681 13.552 15.7601L13.568 15.7761" stroke="#449AC5" stroke-miterlimit="10" stroke-linecap="round" stroke-linejoin="round"/>
<path id="Vector_3" d="M18.736 19.6641L18.704 19.6961C17.184 21.3921 14.528 21.3921 13.008 19.6961L12.976 19.6641" stroke="#449AC5" stroke-miterlimit="10" stroke-linecap="round" stroke-linejoin="round"/>
<path id="Vector_4" d="M18.144 15.7761L18.16 15.7601C18.96 14.7681 20.336 14.7681 21.136 15.7601L21.152 15.7761" stroke="#449AC5" stroke-miterlimit="10" stroke-linecap="round" stroke-linejoin="round"/>
<path id="Vector_5" d="M15.152 6.40039C15.2 6.51239 15.264 6.62439 15.344 6.72039C16.304 8.11239 18.752 9.00839 18.752 10.7684C18.752 12.4964 17.36 13.8884 15.632 13.8884C14.256 13.8884 13.136 12.7684 13.136 11.3924C13.136 10.2884 14.032 9.39239 15.136 9.39239C16.016 9.39239 16.736 10.1124 16.736 10.9924" stroke="#449AC5" stroke-miterlimit="10" stroke-linecap="round" stroke-linejoin="round"/>
</g>
</g>
</svg>
