<svg width="20" height="20" viewBox="0 0 20 20" fill="none" xmlns="http://www.w3.org/2000/svg">
<g id="instagram">
<path id="Vector" d="M14.2 5.2001H15.4M6.39998 1.6001H13.6C16.2509 1.6001 18.4 3.74913 18.4 6.4001V13.6001C18.4 16.2511 16.2509 18.4001 13.6 18.4001H6.39998C3.74901 18.4001 1.59998 16.2511 1.59998 13.6001V6.4001C1.59998 3.74913 3.74901 1.6001 6.39998 1.6001ZM9.99998 13.6001C8.01175 13.6001 6.39998 11.9883 6.39998 10.0001C6.39998 8.01187 8.01175 6.4001 9.99998 6.4001C11.9882 6.4001 13.6 8.01187 13.6 10.0001C13.6 11.9883 11.9882 13.6001 9.99998 13.6001Z" stroke="white" stroke-width="1.5"/>
</g>
</svg>
