<svg width="67" height="58" viewBox="0 0 67 58" fill="none" xmlns="http://www.w3.org/2000/svg">
<g id="&#208;&#179;&#208;&#190;&#209;&#128;&#208;&#189;&#209;&#139;&#208;&#185; &#209;&#128;&#208;&#176;&#208;&#185; &#208;&#184;&#209;&#130;&#208;&#190;&#208;&#179;-02 1">
<g id="Group">
<g id="Group_2">
<path id="Vector" d="M24.1866 33.0635L23.5657 32.4842C23.1142 32.0429 22.7473 31.5188 22.5497 30.9395L21.703 28.6777C21.5337 28.2363 21.2233 27.8777 20.7717 27.6846L20.3766 27.4916C20.0661 27.3536 19.7275 27.5191 19.6428 27.8226L18.2599 33.7255C18.2035 33.9737 17.9777 34.1668 17.7237 34.222C17.4697 34.2496 17.2157 34.1392 17.0746 33.9186L16.3126 32.7325C16.1997 32.5394 15.9457 32.4842 15.7481 32.5945C15.2401 32.8704 14.337 33.3945 13.7725 33.6979C13.4339 33.891 13.1516 34.1392 12.9541 34.4427L11.543 36.4287H26.3597L25.3719 34.6082C25.0897 34.0565 24.6946 33.5324 24.1866 33.0635Z" fill="white"/>
<path id="Vector_2" d="M32.0323 34.1116L31.9758 34.0564C30.7623 33.2841 29.8591 32.0704 29.464 30.6912L29.1818 29.7258C29.0971 29.3948 28.8996 29.1189 28.6174 28.8983L26.9522 27.5467C26.5853 27.2432 26.416 26.7743 26.5289 26.333L27.2062 23.6022C27.2345 23.5194 27.2062 23.3264 27.2062 23.3264C27.1498 23.1609 26.9805 23.0229 26.8111 22.9953L26.1338 22.9126C26.0491 22.9126 25.9362 22.9126 25.8516 22.9678L24.4687 23.7677C24.2711 23.9056 24.0171 23.9056 23.7913 23.7953L22.6907 23.1884C22.6342 23.1609 22.5778 23.216 22.606 23.2712L23.0293 24.4021C23.0858 24.54 23.1704 24.6228 23.2833 24.7331L24.2993 25.5606C24.5533 25.7813 24.7509 26.0847 24.8073 26.4157L25.146 27.988C25.2024 28.2638 25.3718 28.5121 25.5976 28.6776L26.7265 29.4224C27.1216 29.6982 27.4602 30.0844 27.6296 30.5257L28.8149 33.4496C28.8996 33.6979 29.0407 33.9185 29.1818 34.1116L30.9598 36.5114H34.2336L33.6409 35.6563C33.1894 35.0219 32.6532 34.4978 32.0323 34.1116Z" fill="white"/>
<path id="Vector_3" d="M45.043 20.6507C45.0995 20.5403 45.0995 20.4024 44.9866 20.3197L44.4786 19.7956C44.2528 19.5749 43.8577 19.6301 43.7166 19.9059L41.6846 24.0435C41.5435 24.3193 41.487 24.6227 41.4588 24.9262L41.2048 28.5948C41.1201 29.643 40.9226 30.6912 40.6121 31.6842L39.7655 34.3322C39.709 34.5253 39.9066 34.6908 40.0759 34.5805L42.3901 33.2565C43.1804 32.8151 44.0835 32.6496 44.9584 32.7875L49.5586 33.5323C49.8126 33.5599 49.9537 33.2565 49.728 33.1185L47.1033 31.2428C46.9057 31.1049 46.7082 30.9946 46.5106 30.8843L45.0995 30.1947C44.8455 30.0567 44.7608 29.7257 44.9302 29.5051L45.4664 28.8431C45.6075 28.65 45.6075 28.4017 45.4946 28.2086L44.6479 26.9674C44.3657 26.5536 44.281 26.0571 44.3939 25.5606L44.5915 24.6779C44.6761 24.2642 44.6761 23.8228 44.5915 23.4091L44.3375 22.4436C44.2528 22.1678 44.3093 21.8644 44.4504 21.6161L45.043 20.6507Z" fill="white"/>
<path id="Vector_4" d="M34.0645 20.6783C33.7258 20.7611 33.4154 20.899 33.1331 21.0921L32.6534 21.4506C32.3147 21.6989 31.8914 21.7541 31.5245 21.5886C31.1293 21.4231 30.706 21.4231 30.3109 21.5334L29.2949 21.8368L30.6213 22.9402C31.214 23.4091 31.6091 24.0711 31.7785 24.7883L33.3589 31.1326C33.6129 32.098 34.2903 32.8979 35.2216 33.3117L36.04 33.6703C36.4069 33.8358 36.8021 33.5875 36.8021 33.1738V30.5257C36.8021 29.974 36.5198 29.4775 36.04 29.2017L34.6007 28.2914C34.1209 27.988 33.8105 27.5191 33.7258 26.9674L33.6411 26.3606C33.5565 25.8089 33.9234 25.2848 34.4878 25.1745L35.8143 24.9538L37.0561 24.2918C37.3665 24.1263 37.5358 23.7401 37.4229 23.4091L36.6892 21.1748C36.5763 20.7886 36.8021 20.4025 37.2254 20.3473H37.2536C37.7052 20.2645 38.0438 19.906 38.0721 19.437C38.0721 19.1888 38.7776 18.3613 39.0598 18.0578C39.1445 17.9751 39.1445 17.8372 39.0598 17.7544L37.6769 15.9615C37.4229 15.6305 37.2254 15.2995 37.0278 14.9409L35.8989 12.679C35.8707 12.5963 35.7578 12.5963 35.7296 12.679L34.7418 15.2443C34.6289 15.5201 34.6007 15.8236 34.6289 16.127L35.0523 19.3267C35.1087 19.9335 34.7136 20.5128 34.0645 20.6783Z" fill="white"/>
<path id="Vector_5" d="M33.4718 3.74194C14.9861 3.74194 0 18.3889 0 36.4563H7.25316L10.3576 33.3393C10.6116 33.0911 10.8938 32.8428 11.2043 32.6497C12.7001 31.6015 17.5261 27.1054 17.5261 27.1054C17.6955 26.9399 17.8648 26.7468 17.9777 26.5537L19.3041 24.4298C19.3888 24.2918 19.4735 24.1539 19.5863 24.016L21.7595 21.3128C21.8724 21.1749 22.0699 21.1473 22.1828 21.2576L23.4528 22.2506C23.6504 22.3886 23.9044 22.4161 24.1302 22.3058L25.4284 21.5886C25.6824 21.4507 25.9646 21.4231 26.2186 21.5059L27.3757 21.8369C27.6015 21.8921 27.8273 21.8369 27.9684 21.6714L31.8067 17.8648C32.0042 17.6717 32.1735 17.4235 32.2864 17.1752L35.5885 9.94829C35.6731 9.78278 35.8989 9.78278 35.9836 9.94829L38.2414 14.1686C38.3825 14.4169 38.5236 14.6651 38.6929 14.8858L41.2612 18.4165C41.4587 18.6648 41.7974 18.7751 42.1078 18.6372L44.0834 17.8372C44.3374 17.7269 44.6479 17.7821 44.8454 17.9752L46.3412 19.2992C46.4823 19.4371 46.6234 19.6026 46.7081 19.7681L48.0628 22.3334C48.1474 22.4989 48.2603 22.6368 48.4014 22.7472L51.2237 25.1194C51.6188 25.4504 51.9575 25.8641 52.1832 26.3606L53.7919 29.7534C54.3846 30.9947 55.2595 32.098 56.3602 32.9531L60.904 36.4839H67C66.9436 18.3889 51.9575 3.74194 33.4718 3.74194Z" fill="white"/>
</g>
<g id="Group_3">
<path id="Vector_6" d="M0.0281906 53.9168V45.9727C0.0281906 45.0624 0.282194 44.3453 0.790197 43.8212C1.2982 43.2971 2.00376 43.0488 2.87865 43.0488H4.51555C4.572 43.0488 4.62844 43.0764 4.65667 43.104C4.68489 43.1592 4.71311 43.1868 4.71311 43.2695V44.1522C4.71311 44.2073 4.68489 44.2625 4.65667 44.3177C4.62844 44.3729 4.572 44.3729 4.51555 44.3729H2.90688C2.45532 44.3729 2.08843 44.5108 1.83442 44.759C1.58042 45.0349 1.46753 45.3935 1.46753 45.89V53.9168C1.46753 54.0548 1.41109 54.1375 1.26998 54.1375H0.225749C0.0846367 54.1375 0.0281906 54.0548 0.0281906 53.9168Z" fill="white"/>
<path id="Vector_7" d="M6.74505 53.9168C6.32172 53.6686 5.98305 53.31 5.72904 52.8686C5.47504 52.4273 5.36215 51.9032 5.36215 51.3239V45.8899C5.36215 45.3107 5.47504 44.7866 5.72904 44.3453C5.98305 43.9039 6.32172 43.5453 6.74505 43.2971C7.16839 43.0488 7.67639 42.9385 8.24084 42.9385C8.77707 42.9385 9.28507 43.0488 9.70841 43.2971C10.1317 43.5453 10.4704 43.8763 10.7244 44.3177C10.9784 44.759 11.0913 45.2279 11.0913 45.7796V51.4343C11.0913 51.986 10.9784 52.4825 10.7244 52.8962C10.4704 53.3376 10.1317 53.6686 9.70841 53.9168C9.28507 54.1651 8.77707 54.2754 8.24084 54.2754C7.67639 54.2754 7.16839 54.1651 6.74505 53.9168ZM9.22862 52.5652C9.48263 52.2894 9.59552 51.9308 9.59552 51.517V45.752C9.59552 45.3107 9.48263 44.9797 9.22862 44.7038C8.97462 44.428 8.63595 44.2901 8.24084 44.2901C7.8175 44.2901 7.47883 44.428 7.22483 44.7038C6.97083 44.9797 6.85794 45.3659 6.85794 45.8624V51.4067C6.85794 51.9032 6.97083 52.2618 7.22483 52.5652C7.47883 52.8411 7.8175 52.979 8.24084 52.979C8.63595 52.9514 8.97462 52.8135 9.22862 52.5652Z" fill="white"/>
<path id="Vector_8" d="M12.6436 53.9168V45.8348C12.6436 44.9521 12.8976 44.2625 13.3774 43.7108C13.8572 43.1867 14.5345 42.9109 15.3529 42.9109C16.1996 42.9109 16.877 43.1867 17.385 43.7108C17.893 44.2625 18.147 44.9521 18.147 45.8072V47.407C18.147 48.207 17.893 48.869 17.385 49.3655C16.877 49.862 16.2278 50.1102 15.3812 50.1102H14.1112V53.8616C14.1112 53.9995 14.0547 54.0823 13.9136 54.0823H12.8694C12.7 54.1375 12.6436 54.0547 12.6436 53.9168ZM15.3247 48.8138C15.7481 48.8138 16.0867 48.7035 16.3125 48.4552C16.5383 48.207 16.6794 47.876 16.6794 47.4622V45.752C16.6794 45.2831 16.5665 44.9245 16.3407 44.6487C16.115 44.3728 15.8045 44.2349 15.4094 44.2349C15.0143 44.2349 14.7038 44.3728 14.4781 44.6487C14.2523 44.9245 14.1394 45.2831 14.1394 45.752V48.8138H15.3247Z" fill="white"/>
<path id="Vector_9" d="M23.6785 43.0764H24.6945C24.8356 43.0764 24.892 43.1316 24.892 43.2695V53.8892C24.892 54.0272 24.8356 54.1099 24.6945 54.1099H23.6785C23.5374 54.1099 23.4527 54.0272 23.4527 53.8892V49.1724H20.9691V53.8892C20.9691 54.0272 20.9127 54.1099 20.7716 54.1099H19.7556C19.6145 54.1099 19.5298 54.0272 19.5298 53.8892V43.2695C19.5298 43.1316 19.6145 43.0764 19.7556 43.0764H20.7716C20.9127 43.0764 20.9691 43.1316 20.9691 43.2695V47.8484H23.4527V43.2695C23.4527 43.1592 23.5374 43.0764 23.6785 43.0764Z" fill="white"/>
<path id="Vector_10" d="M27.0652 53.9444C26.9241 53.8065 26.8395 53.5858 26.8395 53.31V43.2971C26.8395 43.1592 26.9241 43.104 27.0652 43.104H28.0812C28.2224 43.104 28.2788 43.1592 28.2788 43.2971V47.4898H29.6053C30.3955 47.4898 31.0446 47.7656 31.5526 48.2897C32.0606 48.8138 32.2864 49.5034 32.2864 50.3309V51.3239C32.2864 52.1515 32.0324 52.8411 31.5526 53.3651C31.0446 53.8892 30.4237 54.1651 29.6053 54.1651H27.6861C27.4321 54.1651 27.2346 54.0823 27.0652 53.9444ZM29.5488 52.8411C29.9439 52.8411 30.2544 52.7031 30.4801 52.4273C30.7059 52.1515 30.847 51.8205 30.847 51.4067V50.2482C30.847 49.8344 30.7342 49.5034 30.4801 49.2276C30.2544 48.9517 29.9439 48.8138 29.5488 48.8138H28.307V52.8411H29.5488ZM33.4435 53.9168V43.2695C33.4435 43.1316 33.5282 43.0764 33.6693 43.0764H34.6853C34.8264 43.0764 34.8828 43.1316 34.8828 43.2695V53.9168C34.8828 54.0547 34.8264 54.1375 34.6853 54.1375H33.6693C33.4999 54.1375 33.4435 54.0547 33.4435 53.9168Z" fill="white"/>
<path id="Vector_11" d="M40.8096 43.0765H41.8256C41.9668 43.0765 42.0232 43.1316 42.0232 43.2696V53.5307C42.0232 53.9445 41.7974 54.1651 41.3741 54.1651H39.3421C38.4672 54.1651 37.7898 53.8893 37.3101 53.3376C36.8303 52.786 36.5763 52.0964 36.5763 51.2137V43.2696C36.5763 43.1316 36.6327 43.0765 36.7738 43.0765H37.8181C37.9592 43.0765 38.0156 43.1316 38.0156 43.2696V51.2413C38.0156 51.7102 38.1285 52.0964 38.3825 52.3998C38.6365 52.7032 38.947 52.8411 39.3703 52.8411H40.5556V43.2696C40.5839 43.1592 40.6403 43.0765 40.8096 43.0765ZM38.0156 41.587C37.677 41.3111 37.5076 40.9249 37.4512 40.456V40.4284C37.4512 40.3733 37.4794 40.3181 37.5076 40.2905C37.5358 40.2629 37.5923 40.2354 37.6487 40.2354H38.2696C38.3825 40.2354 38.4672 40.2905 38.5236 40.4284C38.5518 40.5939 38.6365 40.7594 38.7776 40.8422C38.9187 40.9525 39.0881 41.0077 39.3139 41.0077C39.5396 41.0077 39.709 40.9525 39.8501 40.8422C39.9912 40.7319 40.0759 40.5939 40.1041 40.4284C40.1323 40.2905 40.217 40.2354 40.3299 40.2354H40.9508C41.0919 40.2354 41.1765 40.3181 41.1765 40.456C41.1201 40.9249 40.9225 41.3111 40.5839 41.587C40.2452 41.8628 39.8219 42.0007 39.2856 42.0007C38.7494 42.0007 38.3543 41.8628 38.0156 41.587Z" fill="white"/>
<path id="Vector_12" d="M47.4136 53.9168V45.8348C47.4136 44.9521 47.6676 44.2625 48.1474 43.7108C48.6272 43.1867 49.3045 42.9109 50.123 42.9109C50.9696 42.9109 51.647 43.1867 52.155 43.7108C52.663 44.2625 52.917 44.9521 52.917 45.8072V47.407C52.917 48.207 52.663 48.869 52.155 49.3655C51.647 49.862 50.9979 50.1102 50.1512 50.1102H48.8812V53.8616C48.8812 53.9995 48.8247 54.0823 48.6836 54.0823H47.6394C47.47 54.1375 47.4136 54.0547 47.4136 53.9168ZM50.0947 48.8138C50.5181 48.8138 50.8567 48.7035 51.0825 48.4552C51.3083 48.207 51.4494 47.876 51.4494 47.4622V45.752C51.4494 45.2831 51.3365 44.9245 51.1107 44.6487C50.885 44.3728 50.5745 44.2349 50.1794 44.2349C49.7843 44.2349 49.4738 44.3728 49.2481 44.6487C49.0223 44.9245 48.9094 45.2831 48.9094 45.752V48.8138H50.0947Z" fill="white"/>
<path id="Vector_13" d="M54.1869 53.9168V45.8348C54.1869 44.9521 54.4409 44.2625 54.9489 43.7384C55.4569 43.2143 56.1342 42.9385 56.9527 42.9385C57.7711 42.9385 58.4484 43.2143 58.9565 43.7384C59.4645 44.2625 59.7185 44.9797 59.7185 45.8348V53.9168C59.7185 54.0547 59.6338 54.1375 59.4927 54.1375H58.4767C58.4202 54.1375 58.3638 54.1099 58.3073 54.0823C58.2509 54.0547 58.2509 53.9996 58.2509 53.9168V50.4137H55.6262V53.9168C55.6262 54.0547 55.5698 54.1375 55.4286 54.1375H54.3844C54.2433 54.1375 54.1869 54.0547 54.1869 53.9168ZM58.2509 49.0897V45.752C58.2509 45.2831 58.138 44.8969 57.9122 44.6487C57.6864 44.3728 57.376 44.2625 56.9527 44.2625C56.5293 44.2625 56.2189 44.4004 55.9931 44.6487C55.7673 44.9245 55.6544 45.2831 55.6544 45.752V49.0897H58.2509Z" fill="white"/>
<path id="Vector_14" d="M65.6734 43.0765H66.6894C66.8305 43.0765 66.887 43.1316 66.887 43.2696V53.5307C66.887 53.9445 66.6612 54.1651 66.2379 54.1651H64.2059C63.331 54.1651 62.6536 53.8893 62.1739 53.3376C61.6941 52.786 61.4401 52.0964 61.4401 51.2137V43.2696C61.4401 43.1316 61.4965 43.0765 61.6376 43.0765H62.6819C62.823 43.0765 62.8794 43.1316 62.8794 43.2696V51.2413C62.8794 51.7102 62.9923 52.0964 63.2463 52.3998C63.5003 52.7032 63.8108 52.8411 64.2341 52.8411H65.4194V43.2696C65.4477 43.1592 65.5323 43.0765 65.6734 43.0765ZM62.9076 41.587C62.569 41.3111 62.3996 40.9249 62.3432 40.456V40.4284C62.3432 40.3733 62.3714 40.3181 62.3997 40.2905C62.4279 40.2629 62.4843 40.2354 62.5408 40.2354H63.1616C63.2745 40.2354 63.3592 40.2905 63.4157 40.4284C63.4439 40.5939 63.5285 40.7594 63.6697 40.8422C63.8108 40.9525 63.9801 41.0077 64.2059 41.0077C64.4317 41.0077 64.601 40.9525 64.7421 40.8422C64.8832 40.7319 64.9679 40.5939 64.9961 40.4284C65.0243 40.2905 65.109 40.2354 65.2219 40.2354H65.8428C65.9839 40.2354 66.0685 40.3181 66.0685 40.456C66.0121 40.9249 65.8145 41.3111 65.4759 41.587C65.1372 41.8628 64.7139 42.0007 64.1777 42.0007C63.6414 42.0007 63.2181 41.8628 62.9076 41.587Z" fill="white"/>
</g>
</g>
</g>
</svg>
