<svg width="20" height="20" viewBox="0 0 20 20" fill="none" xmlns="http://www.w3.org/2000/svg">
<g id="whatsapp">
<path id="Vector" d="M3.27973 15.0406L3.95055 15.376L4.15803 14.961L3.87937 14.5901L3.27973 15.0406ZM4.95948 16.7203L5.40996 16.1207L5.03903 15.842L4.62407 16.0495L4.95948 16.7203ZM1.59998 18.4001L0.929155 18.0647C0.784784 18.3534 0.841375 18.7022 1.06965 18.9304C1.29792 19.1587 1.64664 19.2153 1.93539 19.0709L1.59998 18.4001ZM6.39998 6.4001L5.98395 5.77606C5.7753 5.91516 5.64998 6.14933 5.64998 6.4001H6.39998ZM13.6 13.6001V14.3501C13.8507 14.3501 14.0849 14.2248 14.224 14.0161L13.6 13.6001ZM8.50508 7.03075L9.24488 6.90745L8.50508 7.03075ZM8.67242 8.03475L7.93262 8.15805L8.67242 8.03475ZM8.15439 9.23049L8.57041 9.85453L8.15439 9.23049ZM12.9693 11.495L13.0926 10.7552H13.0926L12.9693 11.495ZM11.9653 11.3277L11.842 12.0674H11.842L11.9653 11.3277ZM10.7696 11.8457L10.1455 11.4297L10.7696 11.8457ZM0.849976 10.0001C0.849976 12.0593 1.53112 13.9616 2.68009 15.4911L3.87937 14.5901C2.91886 13.3115 2.34998 11.7233 2.34998 10.0001H0.849976ZM9.99998 0.850098C4.94657 0.850098 0.849976 4.94669 0.849976 10.0001H2.34998C2.34998 5.77512 5.775 2.3501 9.99998 2.3501V0.850098ZM19.15 10.0001C19.15 4.94669 15.0534 0.850098 9.99998 0.850098V2.3501C14.225 2.3501 17.65 5.77512 17.65 10.0001H19.15ZM9.99998 19.1501C15.0534 19.1501 19.15 15.0535 19.15 10.0001H17.65C17.65 14.2251 14.225 17.6501 9.99998 17.6501V19.1501ZM4.50901 17.32C6.03843 18.469 7.94074 19.1501 9.99998 19.1501V17.6501C8.27674 17.6501 6.68853 17.0812 5.40996 16.1207L4.50901 17.32ZM1.93539 19.0709L5.29489 17.3912L4.62407 16.0495L1.26457 17.7293L1.93539 19.0709ZM2.60891 14.7052L0.929155 18.0647L2.2708 18.7355L3.95055 15.376L2.60891 14.7052ZM5.64998 6.4001V7.6001H7.14998V6.4001H5.64998ZM12.4 14.3501H13.6V12.8501H12.4V14.3501ZM5.64998 7.6001C5.64998 11.328 8.67205 14.3501 12.4 14.3501V12.8501C9.50048 12.8501 7.14998 10.4996 7.14998 7.6001H5.64998ZM6.816 7.02413L7.0718 6.8536L6.23975 5.60553L5.98395 5.77606L6.816 7.02413ZM7.76529 7.15405L7.93262 8.15805L9.41221 7.91145L9.24488 6.90745L7.76529 7.15405ZM7.73836 8.60645L6.58395 9.37606L7.416 10.6241L8.57041 9.85453L7.73836 8.60645ZM7.93262 8.15805C7.96173 8.33272 7.8857 8.50823 7.73836 8.60645L8.57041 9.85453C9.20888 9.42888 9.53836 8.66836 9.41221 7.91145L7.93262 8.15805ZM7.0718 6.8536C7.3435 6.67247 7.71161 6.83194 7.76529 7.15405L9.24488 6.90745C9.01225 5.51167 7.41712 4.82061 6.23975 5.60553L7.0718 6.8536ZM14.224 14.0161L14.3945 13.7603L13.1465 12.9283L12.9759 13.1841L14.224 14.0161ZM13.0926 10.7552L12.0886 10.5879L11.842 12.0674L12.846 12.2348L13.0926 10.7552ZM10.1455 11.4297L9.37594 12.5841L10.624 13.4161L11.3936 12.2617L10.1455 11.4297ZM12.0886 10.5879C11.3317 10.4617 10.5712 10.7912 10.1455 11.4297L11.3936 12.2617C11.4918 12.1144 11.6674 12.0383 11.842 12.0674L12.0886 10.5879ZM14.3945 13.7603C15.1795 12.5829 14.4884 10.9878 13.0926 10.7552L12.846 12.2348C13.1681 12.2885 13.3276 12.6566 13.1465 12.9283L14.3945 13.7603Z" fill="white"/>
</g>
</svg>
